<svg xmlns="http://www.w3.org/2000/svg" viewBox="0 0 64 64">
  <rect width="64" height="64" rx="14" fill="#fff8db"/>
  <path d="M8 25 32 13l24 12-24 12L8 25Z" fill="#283044"/>
  <path d="M18 31v10c0 5 7 9 14 9s14-4 14-9V31L32 38 18 31Z" fill="#3a86ff"/>
  <path d="M32 13 8 25l24 12 24-12-24-12Z" fill="none" stroke="#1f2937" stroke-width="3" stroke-linejoin="round"/>
  <path d="M18 31v10c0 5 7 9 14 9s14-4 14-9V31" fill="none" stroke="#1f2937" stroke-width="3" stroke-linecap="round"/>
  <path d="M48 28v13" stroke="#ff595e" stroke-width="4" stroke-linecap="round"/>
  <circle cx="48" cy="45" r="4" fill="#ffca3a" stroke="#1f2937" stroke-width="2"/>
  <path d="M22 25h20" stroke="#fff8db" stroke-width="3" stroke-linecap="round"/>
</svg>
